<svg width="28" height="23" viewBox="0 0 28 23" fill="none" xmlns="http://www.w3.org/2000/svg">
<path d="M20.9309 5.24342C19.6561 4.66789 18.2891 4.24387 16.8599 4.00102C16.8339 3.99633 16.8079 4.00804 16.7944 4.03147C16.6187 4.33914 16.424 4.74051 16.2876 5.05599C14.7503 4.82955 13.221 4.82955 11.7153 5.05599C11.5789 4.7335 11.3771 4.33914 11.2005 4.03147C11.1871 4.00883 11.1611 3.99711 11.135 4.00102C9.70658 4.2431 8.33963 4.66712 7.06411 5.24342C7.05306 5.2481 7.0436 5.25592 7.03732 5.26607C4.44449 9.07759 3.73421 12.7954 4.08265 16.4672C4.08423 16.4852 4.09447 16.5023 4.10866 16.5132C5.81934 17.7494 7.47642 18.4999 9.10272 18.9972C9.12875 19.0051 9.15633 18.9957 9.1729 18.9746C9.5576 18.4577 9.90053 17.9126 10.1946 17.3394C10.2119 17.3058 10.1953 17.266 10.1599 17.2527C9.61594 17.0497 9.09799 16.8021 8.59976 16.5211C8.56036 16.4985 8.5572 16.443 8.59346 16.4164C8.6983 16.3391 8.80317 16.2587 8.90329 16.1774C8.9214 16.1627 8.94664 16.1595 8.96793 16.1688C12.2411 17.6393 15.7846 17.6393 19.0191 16.1688C19.0404 16.1587 19.0656 16.1618 19.0845 16.1767C19.1847 16.2579 19.2895 16.3391 19.3952 16.4164C19.4314 16.443 19.429 16.4985 19.3897 16.5211C18.8915 16.8077 18.3734 17.0497 17.8287 17.252C17.7932 17.2653 17.7775 17.3058 17.7948 17.3394C18.0952 17.9118 18.4381 18.4568 18.8157 18.9738C18.8315 18.9957 18.8599 19.0051 18.8859 18.9972C20.5201 18.4999 22.1772 17.7494 23.8878 16.5132C23.9028 16.5023 23.9123 16.4859 23.9139 16.468C24.3309 12.223 23.2153 8.53566 20.9568 5.26684C20.9513 5.25592 20.9419 5.2481 20.9309 5.24342ZM10.6833 14.2315C9.69791 14.2315 8.88594 13.3413 8.88594 12.248C8.88594 11.1548 9.68216 10.2646 10.6833 10.2646C11.6924 10.2646 12.4965 11.1626 12.4807 12.248C12.4807 13.3413 11.6845 14.2315 10.6833 14.2315ZM17.3289 14.2315C16.3435 14.2315 15.5316 13.3413 15.5316 12.248C15.5316 11.1548 16.3278 10.2646 17.3289 10.2646C18.338 10.2646 19.142 11.1626 19.1263 12.248C19.1263 13.3413 18.338 14.2315 17.3289 14.2315Z" fill="white"/>
</svg>
