<svg xmlns="http://www.w3.org/2000/svg" width="180.333" height="24.834" viewBox="0 0 180.333 24.834">
  <g id="Group_16899" data-name="Group 16899" transform="translate(-200.128 122.912)">
    <path id="Path_776" data-name="Path 776" d="M307.97-111.168l4.546-.034,9.514-11.679H305.983l-4.055,16.435h4.9Zm2.378-9.615h5.1l-7.339,9.021Z" transform="translate(18.88 0.006)" fill="#fff"/>
    <path id="Path_777" data-name="Path 777" d="M300.11-114.106l7.168-8.776H291.193l-3.987,16.435h4.9l3.533-14.337h5.036l-5.42,6.643,2.9,7.694h4.9Z" transform="translate(16.149 0.006)" fill="#fff"/>
    <path id="Path_778" data-name="Path 778" d="M355.165-122.882h-4.9l-6.679,7.517,1.891-7.517h-4.9l-4.054,16.435h4.9l1.783-7.168,4.2,7.168h4.9l-4.686-8.043Z" transform="translate(25.296 0.006)" fill="#fff"/>
    <path id="Path_779" data-name="Path 779" d="M277.572-122.912h0l-14.512.036-4.231,16.435h6.5l13.6-14.2ZM264.914-111.2l2.482-9.581h6.643v.07Z" transform="translate(10.887)" fill="#fff"/>
    <path id="Path_780" data-name="Path 780" d="M253.865-110.4l-1.958-12.483h-6.155l-4.091,16.435h4.9l2.833-11.331,1.5,11.331h6.854l4.054-16.435h-4.9Z" transform="translate(7.703 0.006)" fill="#fff"/>
    <path id="Path_781" data-name="Path 781" d="M222.006-115.539H217.32l1.854-7.343h-4.9l-4.089,16.435h4.9l1.538-6.295h4.686l-1.573,6.295h4.9l4.119-16.435h-4.9Z" transform="translate(1.865 0.006)" fill="#fff"/>
    <path id="Path_782" data-name="Path 782" d="M214.395-122.882H200.652l-.524,1.749h4.79l-3.6,14.687h4.892l3.6-14.687h4.054Z" transform="translate(0 0.006)" fill="#fff"/>
    <path id="Path_783" data-name="Path 783" d="M332.9-120.434h6.015l.592-2.45H328.6l-4.021,16.438h10.91l.525-2.1H330Z" transform="translate(23.081 0.005)" fill="#fff"/>
    <path id="Path_784" data-name="Path 784" d="M235.809-109.244h-4.2L235-122.882h-4.9L226.643-109l1.5,2.484.14.07H240v-.068l4.131-16.368h-4.9Z" transform="translate(4.917 0.006)" fill="#fff"/>
    <path id="Path_785" data-name="Path 785" d="M325.661-122.876H320.7v-.036c-1.4,5.455-4.021,16.471-4.021,16.471h4.9Z" transform="translate(21.614)" fill="#fff"/>
    <path id="Path_786" data-name="Path 786" d="M289.678-113.405l.384-1.5h-8.6l10.6-7.973h-6.365l-12.514,10.56.209.422,7.94-.034L271.99-106.9l.174.35,7.94.034-13.393,8.009.245.422,21.121-8.881.665-2.622h-6.081Z" transform="translate(12.348 0.006)" fill="#16bdf9"/>
  </g>
</svg>
